<svg width="17" height="16" viewBox="0 0 17 16" fill="none" xmlns="http://www.w3.org/2000/svg">
<path d="M12.9921 9.643C12.7947 9.83376 12.704 10.1096 12.749 10.3802L13.4265 14.1194C13.4836 14.4364 13.3495 14.7571 13.0835 14.9402C12.8229 15.1302 12.4761 15.153 12.1919 15.001L8.81654 13.2454C8.69918 13.1831 8.56886 13.1497 8.4355 13.1459H8.22897C8.15733 13.1565 8.08722 13.1793 8.0232 13.2143L4.64711 14.9782C4.48022 15.0618 4.29122 15.0915 4.10603 15.0618C3.65486 14.9767 3.35384 14.5481 3.42776 14.0959L4.10603 10.3566C4.15099 10.0838 4.0603 9.8064 3.86292 9.6126L1.11099 6.95258C0.880834 6.72989 0.800813 6.39549 0.905983 6.09377C1.0081 5.79281 1.26874 5.57317 1.58349 5.52377L5.37111 4.9758C5.65918 4.94616 5.91219 4.77136 6.04175 4.51296L7.71074 1.10053C7.75037 1.02453 7.80143 0.954611 7.86316 0.895331L7.93175 0.84213C7.96757 0.80261 8.00872 0.76993 8.05445 0.74333L8.13752 0.712929L8.26707 0.659729H8.58791C8.87446 0.689369 9.12672 0.860371 9.25856 1.11573L10.9497 4.51296C11.0716 4.76148 11.3086 4.934 11.5822 4.9758L15.3698 5.52377C15.6899 5.56937 15.9574 5.78977 16.0633 6.09377C16.1632 6.39853 16.077 6.73293 15.8423 6.95258L12.9921 9.643Z" fill="#F6B76F"/>
</svg>
