<svg width="49" height="49" viewBox="0 0 49 49" fill="none" xmlns="http://www.w3.org/2000/svg">
<rect width="49" height="49" rx="24.5" fill="#0D1B39"/>
<path d="M34.1146 24.3714C34.1146 23.6022 33.4911 22.9787 32.7219 22.9787H25.7586V16.0154C25.7586 15.2463 25.1351 14.6227 24.366 14.6227C23.5968 14.6227 22.9733 15.2463 22.9733 16.0154V22.9787H16.01C15.2409 22.9787 14.6174 23.6022 14.6174 24.3714C14.6174 25.1405 15.2409 25.764 16.01 25.764H22.9733V32.7273C22.9733 33.4964 23.5968 34.12 24.366 34.12C25.1351 34.12 25.7586 33.4964 25.7586 32.7273V25.764H32.7219C33.4911 25.764 34.1146 25.1405 34.1146 24.3714Z" fill="white"/>
</svg>
