<svg width="10" height="6" viewBox="0 0 10 6" fill="none" xmlns="http://www.w3.org/2000/svg">
<path d="M4.95911e-05 0.995538C-0.000313759 1.12361 0.0232353 1.25016 0.0689659 1.36588C0.114697 1.48159 0.181446 1.58354 0.264311 1.66423L4.54962 5.80498C4.67742 5.93107 4.83772 6 5.00315 6C5.16858 6 5.32888 5.93107 5.45668 5.80498L9.74199 1.51849C9.88784 1.37297 9.97957 1.16387 9.99698 0.937177C10.0144 0.710485 9.95607 0.484775 9.83484 0.3097C9.71361 0.134626 9.5394 0.0245285 9.35054 0.00362778C9.16168 -0.0172729 8.97364 0.0527353 8.82779 0.198252L4.99958 4.03037L1.17137 0.326847C1.06653 0.222013 0.93887 0.155421 0.803492 0.13495C0.668113 0.114478 0.53068 0.140983 0.407457 0.211329C0.284235 0.281675 0.180379 0.392918 0.108179 0.531895C0.0359783 0.670871 -0.00154495 0.831765 4.95911e-05 0.995538Z" fill="white"/>
</svg>
